<svg height="512" viewBox="0 0 58 59" width="512" xmlns="http://www.w3.org/2000/svg"><g id="Page-1" fill="none" fill-rule="evenodd"><g id="001---Money-In" fill-rule="nonzero"><path id="Shape" d="m38.51 21h-34.51c-2.209139 0-4 1.790861-4 4v30c0 2.209139 1.790861 4 4 4h46c2.209139 0 4-1.790861 4-4v-18.51z" fill="#2fa8cc"/><path id="Shape" d="m15 46h39v7h-54v-7h7z" fill="#35495e"/><circle id="Oval" cx="8" cy="29" fill="#ecf0f1" r="3"/><circle id="Oval" cx="14" cy="29" fill="#e64c3c" r="3"/><circle id="Oval" cx="47" cy="28" fill="#f0c419" r="11"/><circle id="Oval" cx="26" cy="17" fill="#f0c419" r="8"/><g fill="#f3d55b"><path id="Shape" d="m42 15c-.5522847 0-1-.4477153-1-1v-6c0-.55228475.4477153-1 1-1s1 .44771525 1 1v6c0 .5522847-.4477153 1-1 1z"/><path id="Shape" d="m42 5c-.5522847 0-1-.44771525-1-1v-2c0-.55228475.4477153-1 1-1s1 .44771525 1 1v2c0 .55228475-.4477153 1-1 1z"/><path id="Shape" d="m48 14c-.5522847 0-1-.4477153-1-1v-12c0-.55228475.4477153-1 1-1s1 .44771525 1 1v12c0 .5522847-.4477153 1-1 1z"/><path id="Shape" d="m53 15c-.5522847 0-1-.4477153-1-1v-2c0-.5522847.4477153-1 1-1s1 .4477153 1 1v2c0 .5522847-.4477153 1-1 1z"/><path id="Shape" d="m53 9c-.5522847 0-1-.44771525-1-1v-1c0-.55228475.4477153-1 1-1s1 .44771525 1 1v1c0 .55228475-.4477153 1-1 1z"/><path id="Shape" d="m20 4c-.5522847 0-1-.44771525-1-1v-2c0-.55228475.4477153-1 1-1s1 .44771525 1 1v2c0 .55228475-.4477153 1-1 1z"/><path id="Shape" d="m20 8c-.5522847 0-1-.44771525-1-1v-1c0-.55228475.4477153-1 1-1s1 .44771525 1 1v1c0 .55228475-.4477153 1-1 1z"/><path id="Shape" d="m26 6c-.5522847 0-1-.44771525-1-1v-4c0-.55228475.4477153-1 1-1s1 .44771525 1 1v4c0 .55228475-.4477153 1-1 1z"/><path id="Shape" d="m31 8c-.5522847 0-1-.44771525-1-1v-2c0-.55228475.4477153-1 1-1s1 .44771525 1 1v2c0 .55228475-.4477153 1-1 1z"/></g><path id="Shape" d="m8 41h-2c-.55228475 0-1-.4477153-1-1s.44771525-1 1-1h2c.55228475 0 1 .4477153 1 1s-.44771525 1-1 1z" fill="#547580"/><path id="Shape" d="m20 41h-8c-.5522847 0-1-.4477153-1-1s.4477153-1 1-1h8c.5522847 0 1 .4477153 1 1s-.4477153 1-1 1z" fill="#547580"/><path id="Shape" d="m47 27c-.9147179.0029418-1.7140027-.6171656-1.9384703-1.5039191s.1835183-1.8124623.9894703-2.2450809c.1038233.4407614.4971757.7522233.95.7522233s.8461767-.3114619.95-.7522233c.6443848.3460577 1.0471408 1.0175738 1.049 1.749 0 .5522847.4477153 1 1 1s1-.4477153 1-1c-.0068148-1.8184116-1.2393149-3.4034067-3-3.858v-1.142c0-.5522847-.4477153-1-1-1s-1 .4477153-1 1v1.142c-1.9482742.5014457-3.2190002 2.3742805-2.9650329 4.3699561.2539674 1.9956755 1.953264 3.4905487 3.9650329 3.4880439.9147179-.0029418 1.7140027.6171656 1.9384703 1.5039191s-.1835183 1.8124623-.9894703 2.2450809c-.1038233-.4407614-.4971757-.7522233-.95-.7522233s-.8461767.3114619-.95.7522233c-.6443848-.3460577-1.0471408-1.0175738-1.049-1.749 0-.5522847-.4477153-1-1-1s-1 .4477153-1 1c.0068148 1.8184116 1.2393149 3.4034067 3 3.858v1.142c0 .5522847.4477153 1 1 1s1-.4477153 1-1v-1.142c1.9482742-.5014457 3.2190002-2.3742805 2.9650329-4.3699561-.2539674-1.9956755-1.953264-3.4905487-3.9650329-3.4880439z" fill="#e57e25"/><path id="Shape" d="m29 19c0-1.6568542-1.3431458-3-3-3-.4923866-.0024488-.9097151-.3629666-.9836801-.8497722s.2174481-.9550092.6868862-1.1035971.9771807.0666647 1.1967939.5073693c.2485281.4937426.8502574.6925281 1.344.444s.6925281-.8502574.444-1.344c-.3493516-.6929823-.9547762-1.2227288-1.688-1.477v-.177c0-.5522847-.4477153-1-1-1s-1 .4477153-1 1v.184c-1.3765475.4848523-2.2026937 1.8918441-1.9553873 3.330178s1.49595 2.4885874 2.9553873 2.485822c.4923866.0024488.9097151.3629666.9836801.8497722s-.2174481.9550092-.6868862 1.1035971-.9771807-.0666647-1.1967939-.5073693c-.1607695-.3193954-.4797221-.5287595-.8367114-.5492267-.3569894-.0204673-.6977802.1510718-.8940001.45-.1962198.2989282-.218058.6798313-.0572885.9992267.3493516.6929823.9547762 1.2227288 1.688 1.477v.177c0 .5522847.4477153 1 1 1s1-.4477153 1-1v-.184c1.1943509-.4222546 1.9947486-1.5492146 2-2.816z" fill="#e57e25"/></g></g></svg>