<svg id="Capa_1" enable-background="new 0 0 512 512" height="64" viewBox="0 0 512 512" width="64" xmlns="http://www.w3.org/2000/svg" xmlns:xlink="http://www.w3.org/1999/xlink"><linearGradient id="lg1"><stop offset=".00000083866" stop-color="#96d1f3"/><stop offset="1" stop-color="#ccfff4"/></linearGradient><linearGradient id="SVGID_1_" gradientUnits="userSpaceOnUse" x1="198.357" x2="198.357" xlink:href="#lg1" y1="211.5" y2="341.5"/><linearGradient id="SVGID_2_" gradientUnits="userSpaceOnUse" x1="83" x2="83" xlink:href="#lg1" y1="211.5" y2="341.5"/><linearGradient id="SVGID_3_" gradientUnits="userSpaceOnUse" x1="429" x2="429" xlink:href="#lg1" y1="211.5" y2="341.5"/><linearGradient id="SVGID_4_" gradientUnits="userSpaceOnUse" x1="313.643" x2="313.643" xlink:href="#lg1" y1="211.5" y2="341.5"/><linearGradient id="SVGID_5_" gradientUnits="userSpaceOnUse" x1="256" x2="256" y1="98.5" y2="180.5"><stop offset=".00000036422" stop-color="#a8abff"/><stop offset="1" stop-color="#fac8ff"/></linearGradient><linearGradient id="SVGID_6_" gradientUnits="userSpaceOnUse" x1="256" x2="256" y1="0" y2="512"><stop offset=".00000011981" stop-color="#174fa3"/><stop offset="1" stop-color="#b044af"/></linearGradient><g id="Filled_10_"><path d="m36 286.5h440v218h-440z" fill="#fff"/><path d="m130 211.5-31.143 65v33.572c0 17.357 14.071 31.428 31.429 31.428 17.357 0 31.429-14.071 31.429-31.428v-33.572l21-65z" fill="#fff"/><path d="m182.714 211.5-21 65v33.572c0 17.357 14.071 31.428 31.429 31.428 17.357 0 31.429-14.071 31.429-31.428v-33.572l10.429-65z" fill="url(#SVGID_1_)"/><path d="m78 211.5-42 65v33.572c0 17.357 14.071 31.428 31.429 31.428 17.357 0 31.429-14.071 31.429-31.428v-33.572l31.143-65z" fill="url(#SVGID_2_)"/><path d="m382 211.5h-52.714l21 65v33.572c0 17.357 14.071 31.428 31.429 31.428 17.357 0 31.429-14.071 31.429-31.428v-33.572z" fill="#fff"/><path d="m434 211.5h-52l31.143 65v33.572c0 17.357 14.071 31.428 31.429 31.428 17.357 0 31.429-14.071 31.429-31.428v-33.572z" fill="url(#SVGID_3_)"/><path d="m277 211.5h-42l-10.429 65v33.572c0 17.357 14.071 31.428 31.429 31.428 17.357 0 31.429-14.071 31.429-31.428v-33.572z" fill="#fff"/><path d="m329.286 211.5h-52.286l10.429 65v33.572c0 17.357 14.071 31.428 31.429 31.428 17.357 0 31.429-14.071 31.429-31.428v-33.572z" fill="url(#SVGID_4_)"/><path d="m78 7.5h356v204h-356z" fill="#fff"/><path d="m315.495 180.5h-118.99c-7.243 0-13.452-5.176-14.755-12.301l-12.75-69.699h174l-12.75 69.699c-1.303 7.125-7.512 12.301-14.755 12.301z" fill="url(#SVGID_5_)"/><path d="m483.5 497c0-24.314 0-196.93 0-222.712l-42-65v-209.288h-371v209.287l-42 65v35.784 186.929h-28.5v15h512v-15zm-15-186.929c0 13.194-10.734 23.929-23.929 23.929-13.194 0-23.928-10.734-23.928-23.929v-26.071h47.857zm-50.634-41.071-23.956-50h36.007l32.308 50zm-40.589-50 23.956 50h-45.489l-16.154-50zm-53.45 0 16.154 50h-46.16l-8.022-50zm-53.22 0 8.022 50h-45.259l8.022-50zm-52.428 50h-46.16l16.154-50h38.028zm-61.923 0h-45.489l23.956-50h37.686zm-62.122 0h-44.358l32.308-50h36.007zm12.223 15h47.857v26.071c0 13.194-10.734 23.929-23.929 23.929s-23.929-10.734-23.929-23.929v-26.071zm62.857 0h47.857v26.071c0 13.194-10.734 23.929-23.929 23.929-13.194 0-23.928-10.734-23.928-23.929zm62.857 0h47.857v26.071c.001 13.195-10.734 23.929-23.928 23.929s-23.929-10.734-23.929-23.929zm62.858 0h47.857v26.071c0 13.194-10.734 23.929-23.929 23.929-13.194 0-23.928-10.734-23.928-23.929zm62.857 0h47.857v26.071c0 13.194-10.734 23.929-23.929 23.929s-23.929-10.734-23.929-23.929v-26.071zm-272.286-269h341v189h-341zm-42 269h47.857v26.071c0 13.194-10.734 23.929-23.928 23.929-13.195 0-23.929-10.734-23.929-23.929 0-5.384 0-22.414 0-26.071zm300.25 98v115h-80.25v-115zm-95.25 115h-80.25v-115h80.25zm-95.25 0h-80.25v-115h80.25zm205.5 0v-115h80.25v115zm-300.75-130v130h-14.5v-156.256c17.21 13.456 42.248 10.177 55.357-7.738 15.592 21.308 47.248 21.332 62.857 0 15.591 21.308 47.248 21.332 62.857 0 15.592 21.308 47.248 21.332 62.857 0 15.591 21.308 47.248 21.332 62.857 0 15.592 21.308 47.248 21.332 62.857 0 13.107 17.913 38.145 21.196 55.357 7.738v156.256h-14.499v-130zm42.5-337h37.5v15h-22.5v22.5h-15zm177.214 3.643-11.429 9.715 40.497 47.642h-101.564l40.496-47.643-11.429-9.715-48.753 57.358h-25.528l14.369 78.549c1.955 10.691 11.263 18.451 22.132 18.451h118.99c10.869 0 20.177-7.76 22.132-18.451l14.37-78.549h-25.528zm45.159 133.207c-.652 3.564-3.754 6.15-7.377 6.15h-118.99c-3.623 0-6.726-2.586-7.377-6.15l-11.132-60.85h156.007zm-103.373-6.85h-15v-41h15zm30.667 0h-15v-41h15zm30.666 0h-15v-41h15zm30.667 0h-15v-41h15zm85-8.5h15v37.5h-37.5v-15h22.5z" fill="url(#SVGID_6_)"/></g></svg>