<?xml version="1.0" encoding="iso-8859-1"?>
<!-- Generator: Adobe Illustrator 19.0.0, SVG Export Plug-In . SVG Version: 6.00 Build 0)  -->
<svg version="1.1" id="Layer_1" xmlns="http://www.w3.org/2000/svg" xmlns:xlink="http://www.w3.org/1999/xlink" x="0px" y="0px"
	 viewBox="0 0 480 480" style="enable-background:new 0 0 480 480;" xml:space="preserve">
<path style="fill:#BD852D;" d="M440,408h-24c-4.424,0-8-3.576-8-8s3.576-8,8-8h24c13.232,0,24-10.768,24-24V176
	c0-17.648-14.352-32-32-32h-16c-4.424,0-8-3.576-8-8s3.576-8,8-8h16c26.472,0,48,21.528,48,48v192C480,390.056,462.056,408,440,408z
	"/>
<polygon style="fill:#FEE0B1;" points="160,80 160,111.832 208,156.072 208,192 416,192 416,80 "/>
<path style="fill:#BD852D;" d="M208,176v256c0,10.416,6.712,19.216,16,22.528V472c0,4.424,3.576,8,8,8s8-3.576,8-8v-16h64v16
	c0,4.424,3.576,8,8,8s8-3.576,8-8v-16h56v16c0,4.424,3.576,8,8,8s8-3.576,8-8v-16c13.232,0,24-10.768,24-24V176H208z"/>
<path style="fill:#FCB23C;" d="M376,16h-56V8c0-4.424-3.576-8-8-8s-8,3.576-8,8v8h-88c-22.056,0-40,17.944-40,40v24h240V56
	C416,33.944,398.056,16,376,16z"/>
<path style="fill:#FDC163;" d="M376,16h-56V8c0-4.424-3.576-8-8-8s-8,3.576-8,8v8h-88c-22.056,0-40,17.944-40,40v16
	c0-22.056,17.944-40,40-40h88h16h56c22.056,0,40,17.944,40,40V56C416,33.944,398.056,16,376,16z"/>
<g>
	<rect x="296" y="80" style="fill:#623E04;" width="16" height="280"/>
	<path style="fill:#623E04;" d="M376,376H248c-4.424,0-8-3.576-8-8s3.576-8,8-8h128c4.424,0,8,3.576,8,8S380.424,376,376,376z"/>
</g>
<g>
	<path style="fill:#BD852D;" d="M40,232c-4.424,0-8-3.576-8-8v-8c0-13.232,10.768-24,24-24c4.416,0,8-3.584,8-8s-3.584-8-8-8
		c-13.232,0-24-10.768-24-24s10.768-24,24-24c4.416,0,8-3.584,8-8v-8c0-4.424,3.576-8,8-8s8,3.576,8,8v8c0,13.232-10.768,24-24,24
		c-4.416,0-8,3.584-8,8s3.584,8,8,8c13.232,0,24,10.768,24,24s-10.768,24-24,24c-4.416,0-8,3.584-8,8v8
		C48,228.424,44.424,232,40,232z"/>
	<path style="fill:#BD852D;" d="M72,88c-4.424,0-8-3.576-8-8V64c0-4.424,3.576-8,8-8s8,3.576,8,8v16C80,84.424,76.424,88,72,88z"/>
	<path style="fill:#BD852D;" d="M104,232c-4.424,0-8-3.576-8-8v-8c0-13.232,10.768-24,24-24c4.416,0,8-3.584,8-8s-3.584-8-8-8
		c-13.232,0-24-10.768-24-24s10.768-24,24-24c4.416,0,8-3.584,8-8v-8c0-4.424,3.576-8,8-8s8,3.576,8,8v8c0,13.232-10.768,24-24,24
		c-4.416,0-8,3.584-8,8s3.584,8,8,8c13.232,0,24,10.768,24,24s-10.768,24-24,24c-4.416,0-8,3.584-8,8v8
		C112,228.424,108.424,232,104,232z"/>
	<path style="fill:#BD852D;" d="M136,88c-4.424,0-8-3.576-8-8V64c0-4.424,3.576-8,8-8s8,3.576,8,8v16C144,84.424,140.424,88,136,88z
		"/>
</g>
<path style="fill:#FCB23C;" d="M88,248c-81.656,0-88,18.368-88,24v152c0,30.872,25.128,56,56,56h64c30.872,0,56-25.128,56-56V272
	C176,266.368,169.656,248,88,248z"/>
<path style="fill:#FEE0B1;" d="M104.096,344.136c-0.528-2.68-2.384-4.896-4.92-5.896C95.352,336.736,91.696,336,88,336
	c-22.432,0-40,24.6-40,56c0,24.056,10.808,45.344,26.888,52.984c1.096,0.512,2.264,0.776,3.432,0.776
	c1.84,0,3.664-0.632,5.136-1.864c2.4-2.008,3.408-5.224,2.584-8.24c-0.888-3.24-1.32-6.064-1.32-8.576
	c0.04-10.184,4.616-20.032,9.472-30.456c3.808-8.184,7.752-16.664,9.784-25.936C105.84,362.152,105.88,353.216,104.096,344.136z"/>
<g>
	<path style="fill:#BD852D;" d="M99.192,338.24c-2.704-1.064-5.816-0.592-8.072,1.288c-2.248,1.864-3.296,4.824-2.736,7.696
		c1.368,6.92,1.352,13.648-0.048,20.024c-1.656,7.552-5.064,14.872-8.664,22.616c-5.368,11.52-10.904,23.448-10.96,37.168
		c0,3.992,0.616,8.184,1.88,12.832c0.616,2.248,2.176,4.12,4.28,5.12c4.224,2,8.632,3.016,13.128,3.016c22.432,0,40-24.6,40-56
		C128,366.696,116.424,345.096,99.192,338.24z"/>
	<path style="fill:#BD852D;" d="M88,248c-81.656,0-88,18.368-88,24s6.344,24,88,24s88-18.368,88-24S169.656,248,88,248z"/>
</g>
<g>
	<circle style="fill:#623E04;" cx="376" cy="416" r="8"/>
	<circle style="fill:#623E04;" cx="344" cy="400" r="8"/>
	<circle style="fill:#623E04;" cx="312" cy="416" r="8"/>
	<circle style="fill:#623E04;" cx="280" cy="400" r="8"/>
	<circle style="fill:#623E04;" cx="248" cy="416" r="8"/>
</g>
<g>
</g>
<g>
</g>
<g>
</g>
<g>
</g>
<g>
</g>
<g>
</g>
<g>
</g>
<g>
</g>
<g>
</g>
<g>
</g>
<g>
</g>
<g>
</g>
<g>
</g>
<g>
</g>
<g>
</g>
</svg>
