<svg id="Flat" height="512" viewBox="0 0 512 512" width="512" xmlns="http://www.w3.org/2000/svg"><g><path d="m478 24h-156a10 10 0 0 0 -10 10v108a10 10 0 0 0 10 10h46l32 48 31.429-48h46.571a10 10 0 0 0 10-10v-108a10 10 0 0 0 -10-10z" fill="#fdebeb"/><g><g><path d="m221.347 488h-148.02a10 10 0 0 1 -9.976-9.3l-23.351-334.7 8-8h208l8 8-22.7 325.392a20 20 0 0 1 -19.953 18.608z" fill="#f15a57"/><rect fill="#fef2f1" height="32" rx="10" width="256" x="24" y="112"/><path d="m176 112-32.006-70.414a30 30 0 0 0 -27.311-17.586h-76.683v32h72l24 56z" fill="#aa3947"/></g><g><path d="m452 488h-280a20 20 0 0 1 -20-20v-20h320v20a20 20 0 0 1 -20 20z" fill="#fb8656"/><rect fill="#aa3947" height="48" rx="20" width="352" x="136" y="400"/><rect fill="#aa3947" height="64" rx="20" width="352" x="136" y="304"/><path d="m212 416c19.86 0 37.467-7.72 48.387-19.613 11.649 11.893 30.429 19.613 51.613 19.613s39.964-7.72 51.613-19.613c10.92 11.893 28.527 19.613 48.387 19.613 33.137 0 60-21.49 60-48h-320c0 26.51 26.863 48 60 48z" fill="#d4d580"/><path d="m312 384-112-80h224z" fill="#fdc069"/></g><path d="m240 216h144a80 80 0 0 1 80 80v8a0 0 0 0 1 0 0h-304a0 0 0 0 1 0 0v-8a80 80 0 0 1 80-80z" fill="#fb8656"/><g fill="#fdc069"><path d="m256 240h16v16h-16z"/><path d="m304 264h16v16h-16z"/><path d="m352 240h16v16h-16z"/></g></g><path d="m400.043 119.7-35.375-36.378a16.086 16.086 0 0 1 0-22.3 15.037 15.037 0 0 1 21.684 0l13.691 14.078 13.691-14.079a15.036 15.036 0 0 1 21.683 0 16.086 16.086 0 0 1 0 22.3z" fill="#f15a57"/></g></svg>