<?xml version="1.0" encoding="iso-8859-1"?>
<!-- Generator: Adobe Illustrator 19.0.0, SVG Export Plug-In . SVG Version: 6.00 Build 0)  -->
<svg version="1.1" id="Capa_1" xmlns="http://www.w3.org/2000/svg" xmlns:xlink="http://www.w3.org/1999/xlink" x="0px" y="0px"
	 viewBox="0 0 512.001 512.001" style="enable-background:new 0 0 512.001 512.001;" xml:space="preserve">
<g>
	<path style="fill:#3076AD;" d="M358.4,512L358.4,512c-9.429,0-17.067-7.638-17.067-17.067V460.8h34.133v34.133
		C375.467,504.362,367.829,512,358.4,512z"/>
	<path style="fill:#3076AD;" d="M460.8,512L460.8,512c-9.429,0-17.067-7.638-17.067-17.067V460.8h34.133v34.133
		C477.867,504.362,470.229,512,460.8,512z"/>
</g>
<rect x="85.329" y="42.667" style="fill:#AD4434;" width="34.133" height="76.798"/>
<rect x="85.329" y="85.329" style="fill:#FCB641;" width="34.133" height="34.133"/>
<rect x="170.667" y="42.667" style="fill:#AD4434;" width="34.133" height="76.798"/>
<rect x="170.667" y="85.329" style="fill:#FCB641;" width="34.133" height="34.133"/>
<path style="fill:#E65A45;" d="M213.334,0H76.801c-9.43,0-17.067,7.638-17.067,17.067v25.6h170.667v-25.6
	C230.401,7.638,222.763,0,213.334,0z"/>
<g>
	<path style="fill:#AD4434;" d="M93.868,452.267h-51.2v42.667c0,9.429,7.638,17.067,17.067,17.067h17.067
		c9.429,0,17.067-7.638,17.067-17.067V452.267z"/>
	<path style="fill:#AD4434;" d="M247.468,452.267h-51.2v42.667c0,9.429,7.638,17.067,17.067,17.067h17.067
		c9.429,0,17.067-7.638,17.067-17.067V452.267z"/>
</g>
<path style="fill:#E65A45;" d="M273.067,110.934h-256C7.638,110.934,0,118.571,0,128v324.267c0,9.429,7.638,17.067,17.067,17.067
	h256c9.429,0,17.067-7.638,17.067-17.067V128C290.134,118.571,282.496,110.934,273.067,110.934z"/>
<g>
	<path style="fill:#FCB641;" d="M34.134,162.134H0V128c0-9.429,7.638-17.067,17.067-17.067H51.2v34.133
		C51.2,154.496,43.563,162.134,34.134,162.134z"/>
	<path style="fill:#FCB641;" d="M290.134,162.134H256c-9.429,0-17.067-7.638-17.067-17.067v-34.133h34.133
		c9.429,0,17.067,7.638,17.067,17.067V162.134z"/>
	<path style="fill:#FCB641;" d="M51.2,469.334H17.067C7.638,469.334,0,461.696,0,452.267v-34.133h34.133
		c9.429,0,17.067,7.638,17.067,17.067V469.334z"/>
	<path style="fill:#FCB641;" d="M273.067,469.334h-34.133V435.2c0-9.429,7.638-17.067,17.067-17.067h34.133v34.133
		C290.134,461.696,282.496,469.334,273.067,469.334z"/>
	<path style="fill:#FCB641;" d="M76.801,384L76.801,384c-9.429,0-17.067-7.638-17.067-17.067V221.867
		c0-9.429,7.638-17.067,17.067-17.067l0,0c9.429,0,17.067,7.638,17.067,17.067v145.067C93.868,376.363,86.23,384,76.801,384z"/>
	<path style="fill:#FCB641;" d="M145.068,384L145.068,384c-9.429,0-17.067-7.638-17.067-17.067V221.867
		c0-9.429,7.638-17.067,17.067-17.067l0,0c9.429,0,17.067,7.638,17.067,17.067v145.067C162.134,376.363,154.496,384,145.068,384z"/>
	<path style="fill:#FCB641;" d="M213.334,384L213.334,384c-9.429,0-17.067-7.638-17.067-17.067V221.867
		c0-9.429,7.638-17.067,17.067-17.067l0,0c9.429,0,17.067,7.638,17.067,17.067v145.067C230.401,376.363,222.763,384,213.334,384z"/>
	<path style="fill:#FCB641;" d="M452.268,102.4h-85.333c-9.429,0-17.067,7.638-17.067,17.067v25.6h119.467v-25.6
		C469.334,110.038,461.696,102.4,452.268,102.4z"/>
</g>
<g>
	<rect x="366.936" y="145.064" style="fill:#3076AD;" width="17.062" height="34.133"/>
	<rect x="435.203" y="145.064" style="fill:#3076AD;" width="17.062" height="34.133"/>
</g>
<path style="fill:#409DE6;" d="M494.934,170.667H324.267c-9.429,0-17.067,7.638-17.067,17.067v264.534
	c0,9.429,7.638,17.067,17.067,17.067h170.667c9.429,0,17.067-7.638,17.067-17.067V187.733
	C512,178.305,504.363,170.667,494.934,170.667z"/>
<g>
	<path style="fill:#FCB641;" d="M443.734,418.134H358.4v-25.6c0-9.429,7.638-17.067,17.067-17.067H460.8v25.6
		C460.8,410.496,453.163,418.134,443.734,418.134z"/>
	<path style="fill:#FCB641;" d="M452.268,290.133L452.268,290.133c-4.71,0-8.534-3.823-8.534-8.534v-25.6H460.8v25.6
		C460.8,286.31,456.978,290.133,452.268,290.133z"/>
</g>
<g>
	<path style="fill:#3076AD;" d="M366.934,349.867h-17.067V238.933c0-14.114,11.486-25.6,25.6-25.6h59.734
		c14.114,0,25.6,11.486,25.6,25.6V256h-17.068v-17.067c0-4.71-3.823-8.534-8.534-8.534h-59.733c-4.71,0-8.534,3.823-8.534,8.534
		L366.934,349.867L366.934,349.867z"/>
	<rect x="383.998" y="332.802" style="fill:#3076AD;" width="17.062" height="17.062"/>
	<rect x="418.132" y="332.802" style="fill:#3076AD;" width="17.062" height="17.062"/>
	<rect x="452.265" y="332.802" style="fill:#3076AD;" width="17.062" height="17.062"/>
</g>
<g>
</g>
<g>
</g>
<g>
</g>
<g>
</g>
<g>
</g>
<g>
</g>
<g>
</g>
<g>
</g>
<g>
</g>
<g>
</g>
<g>
</g>
<g>
</g>
<g>
</g>
<g>
</g>
<g>
</g>
</svg>
