<?xml version="1.0" encoding="iso-8859-1"?>
<!-- Generator: Adobe Illustrator 19.0.0, SVG Export Plug-In . SVG Version: 6.00 Build 0)  -->
<svg version="1.1" id="Layer_1" xmlns="http://www.w3.org/2000/svg" xmlns:xlink="http://www.w3.org/1999/xlink" x="0px" y="0px"
	 viewBox="0 0 466.481 466.481" style="enable-background:new 0 0 466.481 466.481;" xml:space="preserve">
<g>
	<path style="fill:#73390E;" d="M86.039,397.319c-1.856,0-3.728-0.648-5.24-1.96c-3.336-2.896-3.688-7.952-0.792-11.288
		l66.312-76.304c2.896-3.336,7.952-3.688,11.288-0.792s3.688,7.952,0.792,11.288l-66.312,76.304
		C90.503,396.391,88.279,397.319,86.039,397.319z"/>
	<path style="fill:#73390E;" d="M313.687,161.031c-2.24,0-4.464-0.928-6.04-2.752c-2.896-3.336-2.544-8.392,0.792-11.288
		l76.304-66.304c3.336-2.888,8.384-2.544,11.288,0.792s2.544,8.392-0.792,11.288l-76.304,66.304
		C317.423,160.383,315.551,161.031,313.687,161.031z"/>
</g>
<g>
	<path style="fill:#E67F33;" d="M231.783,355.007l-38.904,54.6l-25.152-45.624c6.424,20.024,14.184,39.72,23.624,58.856
		l11.08,22.456c5.952,12.08,18.264,19.736,31.744,19.736s25.792-7.656,31.752-19.744l11.08-22.456
		c10.12-20.512,18.376-41.664,25.024-63.192l-27.536,49.84L231.783,355.007z"/>
	<path style="fill:#E67F33;" d="M274.495,40.119l6.6,12.04c-1.384-2.968-2.632-5.984-4.088-8.928l-11.08-22.456
		c-5.968-12.088-18.272-19.744-31.752-19.744s-25.792,7.656-31.752,19.744l-9.544,19.344l38.904,54.256L274.495,40.119z"/>
	<path style="fill:#E67F33;" d="M233.687,353.031h70.456c24.392-83.712,22.584-173.064-5.152-256h-65.304h-4h-60.328
		c-27.736,82.936-29.552,172.288-5.152,256h65.48H233.687z"/>
</g>
<g>
	<path style="fill:#FCB641;" d="M233.687,97.031h65.304c-5.088-15.208-11.056-30.176-17.896-44.872l-6.6-12.04l-42.712,54.256
		l-38.904-54.256l-1.536,3.112c-8.648,17.52-15.872,35.528-21.984,53.8h60.328H233.687z"/>
	<path style="fill:#FCB641;" d="M233.687,353.031h-4h-65.48c1.072,3.672,2.344,7.296,3.512,10.944l25.152,45.624l38.904-54.6
		l42.712,54.48l27.536-49.84c0.68-2.208,1.464-4.392,2.112-6.616h-70.448V353.031z"/>
	<path style="fill:#FCB641;" d="M233.687,313.031L233.687,313.031c-22.088,0-40-17.912-40-40v-40h80v40
		C273.687,295.119,255.775,313.031,233.687,313.031z"/>
	<path style="fill:#FCB641;" d="M419.031,85.839l42.76-42.76c4.872-4.872,6.08-12.312,3-18.472l-7.544-15.088
		c-4.88-9.768-17.904-11.88-25.624-4.16l-46.528,46.528c-6.248,6.248-6.248,16.376,0,22.624l11.312,11.312
		C402.647,92.087,412.783,92.087,419.031,85.839z"/>
	<path style="fill:#FCB641;" d="M85.167,418.359l-42.76,42.76c-4.872,4.872-12.312,6.08-18.472,3l-15.088-7.544
		c-9.768-4.88-11.88-17.904-4.16-25.624l46.528-46.528c6.248-6.248,16.376-6.248,22.624,0l11.312,11.312
		C91.415,401.983,91.415,412.111,85.167,418.359z"/>
</g>
<path style="fill:#73390E;" d="M241.687,153.751v-8.72c0-4.424-3.584-8-8-8s-8,3.576-8,8v8.72c-22.664,3.824-40,23.536-40,47.28
	c0,4.424,3.584,8,8,8s8-3.576,8-8c0-14.872,10.24-27.288,24-30.864v6.864c0,4.424,3.584,8,8,8c4.416,0,8-3.576,8-8v-6.864
	c13.76,3.576,24,15.992,24,30.864c0,4.424,3.584,8,8,8s8-3.576,8-8C281.687,177.295,264.351,157.583,241.687,153.751z"/>
<g>
	<path style="fill:#CE9F7D;" d="M49.687,137.031c-4.416,0-8-3.576-8-8c0-10.848,6.12-16.472,10.592-20.568
		c3.848-3.528,5.408-5.104,5.408-8.784c0-3.672-1.56-5.248-5.408-8.776c-4.472-4.096-10.592-9.712-10.592-20.568
		s6.128-16.464,10.6-20.552c3.84-3.528,5.4-5.096,5.4-8.752c0-4.424,3.584-8,8-8s8,3.576,8,8c0,10.84-6.128,16.456-10.592,20.544
		c-3.848,3.528-5.408,5.096-5.408,8.76c0,3.672,1.56,5.248,5.408,8.776c4.472,4.096,10.592,9.72,10.592,20.568
		c0,10.856-6.128,16.48-10.592,20.576c-3.848,3.528-5.408,5.104-5.408,8.776C57.687,133.455,54.103,137.031,49.687,137.031z"/>
	<path style="fill:#CE9F7D;" d="M49.687,185.031c-4.416,0-8-3.576-8-8v-16c0-4.424,3.584-8,8-8s8,3.576,8,8v16
		C57.687,181.455,54.103,185.031,49.687,185.031z"/>
	<path style="fill:#CE9F7D;" d="M401.687,385.031c-4.416,0-8-3.576-8-8c0-10.848,6.12-16.472,10.592-20.568
		c3.848-3.528,5.408-5.104,5.408-8.784c0-3.672-1.56-5.248-5.408-8.776c-4.472-4.096-10.592-9.712-10.592-20.568
		s6.128-16.464,10.6-20.552c3.84-3.528,5.4-5.096,5.4-8.752c0-4.424,3.584-8,8-8s8,3.576,8,8c0,10.84-6.128,16.456-10.592,20.544
		c-3.848,3.528-5.408,5.096-5.408,8.76c0,3.672,1.56,5.248,5.408,8.776c4.472,4.096,10.592,9.72,10.592,20.568
		c0,10.856-6.128,16.48-10.592,20.576c-3.848,3.528-5.408,5.104-5.408,8.776C409.687,381.455,406.103,385.031,401.687,385.031z"/>
	<path style="fill:#CE9F7D;" d="M401.687,433.031c-4.416,0-8-3.576-8-8v-16c0-4.424,3.584-8,8-8s8,3.576,8,8v16
		C409.687,429.455,406.103,433.031,401.687,433.031z"/>
</g>
<g>
</g>
<g>
</g>
<g>
</g>
<g>
</g>
<g>
</g>
<g>
</g>
<g>
</g>
<g>
</g>
<g>
</g>
<g>
</g>
<g>
</g>
<g>
</g>
<g>
</g>
<g>
</g>
<g>
</g>
</svg>
