<?xml version="1.0" encoding="iso-8859-1"?>
<!-- Generator: Adobe Illustrator 19.0.0, SVG Export Plug-In . SVG Version: 6.00 Build 0)  -->
<svg version="1.1" id="Layer_1" xmlns="http://www.w3.org/2000/svg" xmlns:xlink="http://www.w3.org/1999/xlink" x="0px" y="0px"
	 viewBox="0 0 474.781 474.781" style="enable-background:new 0 0 474.781 474.781;" xml:space="preserve">
<g style="opacity:0.5;">
	<path style="fill:#BD6355;" d="M365.408,128h-256c-4.424,0-8-3.576-8-8V8c0-4.424,3.576-8,8-8h256c4.424,0,8,3.576,8,8v112
		C373.408,124.424,369.832,128,365.408,128z M117.408,112h240V16h-240V112z"/>
</g>
<g>
	
		<rect x="63.775" y="422.587" transform="matrix(0.9848 0.1736 -0.1736 0.9848 78.8958 -16.8504)" style="fill:#FCB641;" width="143.998" height="39.999"/>
	
		<rect x="83.924" y="296.297" transform="matrix(0.9848 0.1736 -0.1736 0.9848 59.3608 -22.0837)" style="fill:#FCB641;" width="143.998" height="63.999"/>
</g>
<g>
	
		<rect x="72.797" y="359.376" transform="matrix(0.9848 0.1736 -0.1736 0.9848 70.1425 -19.1943)" style="fill:#E65039;" width="143.998" height="63.999"/>
	<polygon style="fill:#E65039;" points="384.232,284.288 373.408,168 101.408,168 90.584,284.288 232.392,309.296 237.408,279.512 
		242.424,309.296 	"/>
</g>
<g>
	
		<rect x="267.009" y="422.555" transform="matrix(-0.9848 0.1736 -0.1736 -0.9848 749.6962 819.5367)" style="fill:#FCB641;" width="143.998" height="39.999"/>
	
		<rect x="246.909" y="296.325" transform="matrix(-0.9848 0.1736 -0.1736 -0.9848 689.9713 596.3011)" style="fill:#FCB641;" width="143.998" height="63.999"/>
</g>
<rect x="257.975" y="359.342" transform="matrix(-0.9848 0.1736 -0.1736 -0.9848 722.8749 719.4555)" style="fill:#E65039;" width="143.998" height="63.999"/>
<rect x="101.408" y="112" style="fill:#AD3C2B;" width="272" height="56"/>
<g>
	<path style="fill:#FCB641;" d="M93.408,256l39.76-9.944c14.248-3.56,24.24-16.36,24.24-31.048V168h-56L93.408,256z"/>
	<path style="fill:#FCB641;" d="M381.408,256l-39.76-9.944c-14.248-3.56-24.24-16.36-24.24-31.04V168h56L381.408,256z"/>
</g>
<g>
	<path style="fill:#AD3C2B;" d="M245.408,208h-16c-4.424,0-8-3.576-8-8s3.576-8,8-8h16c4.424,0,8,3.576,8,8S249.832,208,245.408,208
		z"/>
	<path style="fill:#AD3C2B;" d="M245.408,240h-16c-4.424,0-8-3.576-8-8s3.576-8,8-8h16c4.424,0,8,3.576,8,8S249.832,240,245.408,240
		z"/>
</g>
<g>
	<path style="fill:#BD6355;" d="M189.408,208c-4.424,0-8-3.576-8-8c0-25.328,23.904-51.32,32-59.4V136c0-4.424,3.576-8,8-8
		s8,3.576,8,8v8c0,2.232-0.944,4.376-2.584,5.888c-8.192,7.528-29.416,31.2-29.416,50.112C197.408,204.424,193.832,208,189.408,208z
		"/>
	<path style="fill:#BD6355;" d="M285.408,208c-4.424,0-8-3.576-8-8c0-18.912-21.224-42.584-29.416-50.112
		c-1.64-1.512-2.584-3.656-2.584-5.888v-8c0-4.424,3.576-8,8-8c4.424,0,8,3.576,8,8v4.6c8.096,8.08,32,34.072,32,59.4
		C293.408,204.424,289.832,208,285.408,208z"/>
	<g style="opacity:0.5;">
		<path style="opacity:0.5;fill:#BD6355;enable-background:new    ;" d="M221.408,72h-40c-17.648,0-32-14.352-32-32
			c0-4.424,3.576-8,8-8s8,3.576,8,8c0,8.824,7.176,16,16,16h40c4.424,0,8,3.576,8,8S225.832,72,221.408,72z"/>
		<path style="opacity:0.5;fill:#BD6355;enable-background:new    ;" d="M293.408,72h-40c-4.424,0-8-3.576-8-8s3.576-8,8-8h40
			c8.824,0,16-7.176,16-16c0-4.424,3.576-8,8-8s8,3.576,8,8C325.408,57.648,311.056,72,293.408,72z"/>
	</g>
</g>
<g>
</g>
<g>
</g>
<g>
</g>
<g>
</g>
<g>
</g>
<g>
</g>
<g>
</g>
<g>
</g>
<g>
</g>
<g>
</g>
<g>
</g>
<g>
</g>
<g>
</g>
<g>
</g>
<g>
</g>
</svg>
