<?xml version="1.0" encoding="iso-8859-1"?>
<!-- Generator: Adobe Illustrator 19.0.0, SVG Export Plug-In . SVG Version: 6.00 Build 0)  -->
<svg version="1.1" id="Layer_1" xmlns="http://www.w3.org/2000/svg" xmlns:xlink="http://www.w3.org/1999/xlink" x="0px" y="0px"
	 viewBox="0 0 480.242 480.242" style="enable-background:new 0 0 480.242 480.242;" xml:space="preserve">
<path style="fill:#E65039;" d="M128.129,356.121l98.424-14.064c9.008-1.288,18.144-1.288,27.152,0l98.424,14.064l-70.504,105.752
	c-5.928,8.904-15.92,14.248-26.624,14.248h-29.752c-10.696,0-20.688-5.344-26.624-14.248L128.129,356.121z"/>
<g>
	<path style="fill:#AD3C2B;" d="M368.129,380.121c-2.048,0-4.096-0.784-5.656-2.344l-16-16c-1.96-1.96-2.768-4.8-2.136-7.496
		c0.64-2.704,2.624-4.872,5.256-5.752l24-8c4.216-1.408,8.728,0.864,10.12,5.056c1.4,4.192-0.864,8.728-5.056,10.12l-11.72,3.912
		l6.84,6.84c3.128,3.128,3.128,8.184,0,11.312C372.225,379.337,370.177,380.121,368.129,380.121z"/>
	<path style="fill:#AD3C2B;" d="M112.129,380.121c-2.048,0-4.096-0.784-5.656-2.344c-3.128-3.128-3.128-8.184,0-11.312l6.84-6.84
		l-11.72-3.912c-4.184-1.392-6.456-5.92-5.056-10.12c1.392-4.184,5.896-6.464,10.12-5.056l24,8c2.632,0.872,4.616,3.048,5.256,5.752
		c0.632,2.696-0.168,5.528-2.136,7.496l-16,16C116.225,379.337,114.177,380.121,112.129,380.121z"/>
</g>
<g>
	<path style="fill:#F09688;" d="M208.129,396.121c-2.048,0-4.096-0.784-5.656-2.344l-8-8c-3.128-3.128-3.128-8.184,0-11.312
		s8.184-3.128,11.312,0l2.344,2.344l2.344-2.344c3.128-3.128,8.184-3.128,11.312,0s3.128,8.184,0,11.312l-8,8
		C212.225,395.337,210.177,396.121,208.129,396.121z"/>
	<path style="fill:#F09688;" d="M272.129,396.121c-2.056,0-4.104-0.792-5.656-2.344l-8-8c-3.128-3.128-3.128-8.184,0-11.312
		c3.128-3.128,8.184-3.128,11.312,0l2.672,2.664l3.368-2.992c3.288-2.928,8.352-2.64,11.296,0.672
		c2.928,3.304,2.632,8.36-0.672,11.296l-9.008,8C275.929,395.449,274.025,396.121,272.129,396.121z"/>
	<path style="fill:#F09688;" d="M241.137,452.121c-2.048,0-4.096-0.784-5.656-2.344l-8-8c-3.128-3.128-3.128-8.184,0-11.312
		s8.184-3.128,11.312,0l2.344,2.344l2.344-2.344c3.128-3.128,8.184-3.128,11.312,0c3.128,3.128,3.128,8.184,0,11.312l-8,8
		C245.233,451.337,243.185,452.121,241.137,452.121z"/>
</g>
<g>
	<path style="fill:#AD3C2B;" d="M32.033,228.121c-9.76,0-14.832-6.744-18.216-11.096c-3.096-3.992-4.008-4.904-5.68-4.904
		c-0.048,0-0.088,0-0.136,0c-4.36,0-7.92-3.496-8-7.864c-0.064-4.416,3.448-8.136,7.872-8.136c0.128,0,0.248,0,0.368,0
		c9.76,0,14.832,6.84,18.216,11.192c3.104,3.992,4.056,4.872,5.688,4.856c1.688-0.024,2.56-0.624,5.52-4.712
		c3.28-4.52,8.224-11.336,18.224-11.336c0.12,0,0.232,0,0.36,0c9.76,0,14.832,6.448,18.208,10.8
		c3.096,3.992,4.032,4.736,5.664,4.656c4.504,0.136,8.056,3.712,8.136,8.144c0.064,4.408-3.448,8.4-7.872,8.4
		c-0.128,0-0.248,0-0.368,0c-9.76,0-14.832-6.848-18.2-11.2c-3.096-3.984-4.344-4.752-5.664-4.856
		c-1.688,0.032-2.56,0.632-5.52,4.72c-3.28,4.52-8.224,11.336-18.224,11.336C32.289,228.121,32.161,228.121,32.033,228.121z"/>
	<path style="fill:#AD3C2B;" d="M448.217,228.121c-0.12,0-0.24,0-0.368,0c-10,0-14.944-6.896-18.216-11.408
		c-2.96-4.088-3.832-4.808-5.52-4.84c-1.584,0.128-2.48,0.824-5.488,4.88c-3.352,4.528-8.392,11.368-18.264,11.368
		c-0.128,0-0.248,0-0.368,0c-4.424-0.08-7.936-3.72-7.864-8.136c0.08-4.368,3.64-7.864,8-7.864c0.072,0,0.128,0,0.2,0
		c1.52,0,2.464-0.848,5.424-4.856c3.384-4.576,8.592-11.152,18.616-11.344c10,0.168,14.944,6.992,18.216,11.504
		c2.96,4.088,3.832,4.864,5.52,4.888c1.704,0.064,2.584-0.712,5.688-4.704c3.432-4.408,8.328-11.168,18.584-10.888
		c4.424,0.08,7.936,3.416,7.864,7.832c-0.08,4.376-3.64,7.568-8,7.568c-0.08,0-0.152,0-0.224,0c-1.624,0-2.544,0.992-5.584,4.904
		C463.057,221.377,457.977,228.121,448.217,228.121z"/>
	<path style="fill:#AD3C2B;" d="M144.121,108.121c-1.104,0-2.232-0.232-3.304-0.72c-4.024-1.832-5.8-6.568-3.968-10.592
		c1.72-3.784,42.824-92.688,103.28-92.688c60.408,0,102.48,88.84,104.232,92.624c1.864,4,0.136,8.76-3.864,10.624
		c-4.016,1.856-8.768,0.136-10.632-3.864c-0.392-0.84-39.512-83.384-89.736-83.384c-50.168,0-88.336,82.488-88.72,83.312
		C150.065,106.377,147.161,108.121,144.121,108.121z"/>
	<path style="fill:#AD3C2B;" d="M256.129,228.121h-32c-4.424,0-8-3.576-8-8s3.576-8,8-8h32c4.424,0,8,3.576,8,8
		S260.553,228.121,256.129,228.121z"/>
</g>
<path style="fill:#E65039;" d="M401.113,228.121c0,0,0.016-75.504-64-128c0,0-75.648,30-80.984,128
	C256.129,228.121,332.113,255.121,401.113,228.121z"/>
<g>
	<path style="fill:#F09688;" d="M296.129,204.121c-2.048,0-4.096-0.784-5.656-2.344l-8-8c-3.128-3.128-3.128-8.184,0-11.312
		s8.184-3.128,11.312,0l2.344,2.344l2.344-2.344c3.128-3.128,8.184-3.128,11.312,0s3.128,8.184,0,11.312l-8,8
		C300.225,203.337,298.177,204.121,296.129,204.121z"/>
	<path style="fill:#F09688;" d="M336.129,172.121c-2.048,0-4.096-0.784-5.656-2.344l-8-8c-3.128-3.128-3.128-8.184,0-11.312
		s8.184-3.128,11.312,0l2.344,2.344l2.344-2.344c3.128-3.128,8.184-3.128,11.312,0s3.128,8.184,0,11.312l-8,8
		C340.225,171.337,338.177,172.121,336.129,172.121z"/>
	<path style="fill:#F09688;" d="M360.129,220.121c-2.048,0-4.096-0.784-5.656-2.344l-8-8c-3.128-3.128-3.128-8.184,0-11.312
		s8.184-3.128,11.312,0l2.344,2.344l2.344-2.344c3.128-3.128,8.184-3.128,11.312,0s3.128,8.184,0,11.312l-8,8
		C364.225,219.337,362.177,220.121,360.129,220.121z"/>
</g>
<path style="fill:#E65039;" d="M80.153,228.121c0,0-3-81,64-128c0,0,75.648,30,80.984,128
	C225.137,228.121,149.153,255.121,80.153,228.121z"/>
<g>
	<path style="fill:#F09688;" d="M185.137,204.121c-2.048,0-4.096-0.784-5.656-2.344l-8-8c-3.128-3.128-3.128-8.184,0-11.312
		s8.184-3.128,11.312,0l2.344,2.344l2.344-2.344c3.128-3.128,8.184-3.128,11.312,0s3.128,8.184,0,11.312l-8,8
		C189.233,203.337,187.185,204.121,185.137,204.121z"/>
	<path style="fill:#F09688;" d="M145.137,172.121c-2.048,0-4.096-0.784-5.656-2.344l-8-8c-3.128-3.128-3.128-8.184,0-11.312
		s8.184-3.128,11.312,0l2.344,2.344l2.344-2.344c3.128-3.128,8.184-3.128,11.312,0s3.128,8.184,0,11.312l-8,8
		C149.233,171.337,147.185,172.121,145.137,172.121z"/>
	<path style="fill:#F09688;" d="M121.137,220.121c-2.048,0-4.096-0.784-5.656-2.344l-8-8c-3.128-3.128-3.128-8.184,0-11.312
		s8.184-3.128,11.312,0l2.344,2.344l2.344-2.344c3.128-3.128,8.184-3.128,11.312,0s3.128,8.184,0,11.312l-8,8
		C125.233,219.337,123.185,220.121,121.137,220.121z"/>
</g>
<g>
</g>
<g>
</g>
<g>
</g>
<g>
</g>
<g>
</g>
<g>
</g>
<g>
</g>
<g>
</g>
<g>
</g>
<g>
</g>
<g>
</g>
<g>
</g>
<g>
</g>
<g>
</g>
<g>
</g>
</svg>
